<svg id="svg" version="1.1" width="400" height="31.703204047217536" xmlns="http://www.w3.org/2000/svg" xmlns:xlink="http://www.w3.org/1999/xlink" style="display: block;"><g id="svgg"><path id="path0" d="M209.750 9.000 C 209.554 9.084,211.412 9.141,214.250 9.138 C 216.914 9.136,218.896 9.074,218.667 9.000 C 218.104 8.820,210.170 8.820,209.750 9.000 M219.500 9.651 C 219.500 9.730,219.644 9.832,219.819 9.878 C 219.995 9.924,220.172 10.139,220.213 10.356 C 220.286 10.738,220.289 10.737,220.311 10.318 C 220.327 10.007,220.217 9.834,219.917 9.697 C 219.688 9.593,219.500 9.572,219.500 9.651 M188.354 10.059 C 187.649 10.318,187.000 11.056,187.000 11.598 C 187.000 12.834,186.216 13.731,185.269 13.577 C 184.440 13.443,182.939 12.956,182.636 12.724 C 182.515 12.632,182.178 12.461,181.887 12.346 C 181.596 12.231,181.317 12.031,181.267 11.901 C 181.218 11.772,181.066 11.667,180.930 11.667 C 180.794 11.667,180.623 11.561,180.550 11.433 C 180.477 11.304,180.267 11.173,180.083 11.141 C 179.609 11.059,179.554 11.720,179.988 12.273 C 180.386 12.779,180.428 13.398,180.106 14.014 C 179.917 14.377,179.917 14.495,180.107 14.755 C 180.232 14.925,180.333 15.192,180.333 15.349 C 180.333 15.505,180.596 15.789,180.917 15.978 C 181.508 16.327,181.636 16.563,181.333 16.750 C 180.925 17.002,182.162 18.667,182.758 18.667 C 182.863 18.667,183.075 18.806,183.229 18.976 C 183.606 19.393,182.471 20.500,181.666 20.500 C 181.113 20.500,180.938 21.043,181.430 21.232 C 182.129 21.500,185.419 21.335,186.044 21.000 C 186.386 20.817,186.785 20.667,186.931 20.667 C 187.078 20.667,187.388 20.517,187.621 20.333 C 187.854 20.150,188.145 20.000,188.267 20.000 C 188.389 20.000,188.569 19.850,188.667 19.667 C 188.765 19.483,188.914 19.333,188.998 19.333 C 189.186 19.333,190.000 18.536,190.000 18.352 C 190.000 18.278,190.150 18.083,190.333 17.917 C 190.517 17.751,190.667 17.524,190.667 17.413 C 190.667 17.302,190.806 17.033,190.977 16.814 C 191.147 16.596,191.338 16.071,191.400 15.648 C 191.463 15.224,191.621 14.737,191.752 14.564 C 191.892 14.379,191.992 13.856,191.995 13.292 C 191.999 12.573,192.080 12.253,192.321 12.013 C 192.976 11.358,192.842 10.983,191.833 10.643 C 191.329 10.473,190.767 10.263,190.583 10.177 C 190.000 9.901,188.935 9.844,188.354 10.059 M220.750 15.500 C 220.750 17.975,220.806 20.000,220.875 20.000 C 220.944 20.000,221.000 17.975,221.000 15.500 C 221.000 13.025,220.944 11.000,220.875 11.000 C 220.806 11.000,220.750 13.025,220.750 15.500 M213.792 12.451 C 213.998 12.491,214.335 12.491,214.542 12.451 C 214.748 12.411,214.579 12.379,214.167 12.379 C 213.754 12.379,213.585 12.411,213.792 12.451 M212.351 13.014 C 212.131 13.102,211.985 13.207,212.025 13.247 C 212.145 13.367,212.833 13.140,212.833 12.981 C 212.833 12.900,212.815 12.838,212.792 12.844 C 212.769 12.850,212.570 12.926,212.351 13.014 M211.444 13.778 C 211.383 13.839,211.340 14.120,211.348 14.403 L 211.363 14.917 211.525 14.357 C 211.686 13.797,211.654 13.568,211.444 13.778 M217.333 15.500 C 217.333 15.775,217.408 16.000,217.500 16.000 C 217.592 16.000,217.667 15.775,217.667 15.500 C 217.667 15.225,217.592 15.000,217.500 15.000 C 217.408 15.000,217.333 15.225,217.333 15.500 M211.348 16.708 C 211.337 17.169,211.401 17.333,211.593 17.333 C 211.737 17.333,211.803 17.253,211.742 17.154 C 211.681 17.055,211.570 16.774,211.496 16.529 C 211.371 16.115,211.361 16.127,211.348 16.708 M212.667 18.354 C 212.667 18.571,213.068 18.704,213.530 18.638 C 213.854 18.592,213.815 18.552,213.292 18.391 C 212.929 18.279,212.667 18.263,212.667 18.354 M214.833 18.500 C 214.435 18.627,214.441 18.634,214.948 18.650 C 215.241 18.659,215.527 18.592,215.583 18.500 C 215.702 18.308,215.432 18.308,214.833 18.500 M208.000 20.343 C 208.000 20.624,208.065 20.813,208.144 20.764 C 208.279 20.681,208.205 19.833,208.064 19.833 C 208.029 19.833,208.000 20.063,208.000 20.343 M220.167 20.546 C 220.167 20.960,219.097 21.722,218.333 21.852 C 217.353 22.019,211.145 22.018,210.125 21.850 C 209.690 21.778,209.333 21.783,209.333 21.860 C 209.333 21.937,209.633 22.000,210.000 22.000 C 210.556 22.000,210.667 22.056,210.667 22.333 C 210.667 22.656,210.778 22.667,214.182 22.667 C 217.558 22.667,217.701 22.653,217.785 22.333 C 217.859 22.052,218.012 22.000,218.769 22.000 C 219.556 22.000,219.667 21.959,219.667 21.667 C 219.667 21.444,219.778 21.333,220.000 21.333 C 220.259 21.333,220.333 21.222,220.333 20.833 C 220.333 20.558,220.296 20.333,220.250 20.333 C 220.204 20.333,220.167 20.429,220.167 20.546 " stroke="none" fill="#ffffff" fill-rule="evenodd"></path><path id="path1" d="M0.000 15.833 L 0.000 31.667 200.000 31.667 L 400.000 31.667 400.000 15.833 L 400.000 0.000 200.000 0.000 L 0.000 0.000 0.000 15.833 M219.454 8.208 C 219.631 8.369,219.868 8.500,219.981 8.500 C 220.290 8.500,221.136 9.479,221.638 10.417 L 222.083 11.250 222.083 15.583 C 222.083 20.808,221.987 21.112,219.833 22.663 L 219.250 23.083 214.250 23.083 L 209.250 23.083 208.486 22.548 C 207.569 21.907,206.955 21.051,206.584 19.899 C 206.157 18.569,206.285 11.535,206.754 10.582 C 207.233 9.610,207.976 8.696,208.390 8.570 C 208.588 8.510,208.862 8.364,209.000 8.245 C 209.600 7.729,218.889 7.696,219.454 8.208 M190.417 8.986 C 190.790 9.260,191.964 9.485,192.537 9.392 C 193.577 9.223,194.048 9.428,193.963 10.011 C 193.920 10.301,193.982 10.582,194.112 10.690 C 194.453 10.973,194.383 11.195,193.725 11.911 C 193.172 12.513,193.105 12.692,192.984 13.894 C 192.911 14.621,192.772 15.295,192.675 15.391 C 192.579 15.488,192.500 15.676,192.500 15.809 C 192.500 17.734,188.278 21.833,186.296 21.833 C 186.064 21.833,185.605 21.946,185.276 22.083 C 184.940 22.224,184.172 22.333,183.526 22.333 C 182.879 22.333,182.112 22.224,181.776 22.083 C 181.447 21.946,180.978 21.833,180.734 21.833 C 180.179 21.833,178.500 20.889,178.500 20.577 C 178.500 20.235,179.049 20.001,179.864 19.995 C 180.317 19.992,180.816 19.847,181.212 19.603 L 181.840 19.217 181.208 18.779 C 180.482 18.276,180.000 17.548,180.000 16.955 C 180.000 16.730,179.861 16.366,179.690 16.147 C 178.930 15.172,178.573 13.847,179.000 13.583 C 179.092 13.527,179.167 13.302,179.167 13.083 C 179.167 12.865,179.092 12.640,179.000 12.583 C 178.781 12.448,178.786 10.980,179.007 10.399 C 179.399 9.368,179.871 9.404,181.209 10.568 C 182.108 11.349,183.113 12.000,183.419 12.000 C 183.550 12.000,183.956 12.156,184.322 12.347 C 185.244 12.828,185.545 12.682,185.794 11.631 C 186.017 10.692,186.706 9.700,187.350 9.391 C 187.785 9.182,188.437 8.909,188.833 8.770 C 189.128 8.667,190.177 8.810,190.417 8.986 M210.372 10.188 C 208.886 10.759,208.806 11.054,208.867 15.718 C 208.937 21.180,208.789 21.036,214.358 21.026 C 217.469 21.020,219.000 20.840,219.000 20.480 C 219.000 20.407,219.169 20.189,219.375 19.997 C 219.782 19.619,220.012 15.311,219.754 12.902 L 219.646 11.887 219.090 12.444 C 218.784 12.750,218.413 13.000,218.267 13.000 C 217.943 13.000,217.941 13.212,218.255 14.083 C 219.541 17.655,215.502 21.163,212.288 19.267 C 208.397 16.971,209.838 11.333,214.317 11.333 C 215.043 11.333,215.550 11.419,215.760 11.578 C 216.316 11.999,216.793 11.898,216.917 11.334 C 216.977 11.059,217.189 10.717,217.388 10.575 C 218.506 9.777,212.329 9.436,210.372 10.188 M213.118 14.003 C 211.921 14.944,212.240 16.924,213.653 17.329 C 215.362 17.820,216.721 16.222,215.918 14.669 C 215.391 13.650,213.990 13.316,213.118 14.003 " stroke="none" fill="#77b5be" fill-rule="evenodd"></path><path id="path2" d="M209.667 7.949 C 209.438 7.994,209.137 8.127,209.000 8.245 C 208.862 8.364,208.588 8.510,208.390 8.570 C 207.976 8.696,207.233 9.610,206.754 10.582 C 206.285 11.535,206.157 18.569,206.584 19.899 C 206.955 21.051,207.569 21.907,208.486 22.548 L 209.250 23.083 214.250 23.083 L 219.250 23.083 219.833 22.663 C 221.987 21.112,222.083 20.808,222.083 15.583 L 222.083 11.250 221.638 10.417 C 221.136 9.479,220.290 8.500,219.981 8.500 C 219.868 8.500,219.631 8.369,219.454 8.208 C 219.136 7.920,210.922 7.703,209.667 7.949 M219.317 8.575 C 221.312 9.586,221.500 10.182,221.500 15.500 C 221.500 20.247,221.466 20.458,220.516 21.539 C 219.351 22.867,219.124 22.917,214.250 22.917 L 209.917 22.917 209.127 22.445 C 207.097 21.233,206.833 20.427,206.833 15.439 C 206.833 10.662,207.190 9.602,209.141 8.586 C 210.355 7.954,218.075 7.945,219.317 8.575 M188.833 8.770 C 188.437 8.909,187.785 9.182,187.350 9.391 C 186.706 9.700,186.017 10.692,185.794 11.631 C 185.545 12.682,185.244 12.828,184.322 12.347 C 183.956 12.156,183.550 12.000,183.419 12.000 C 183.113 12.000,182.108 11.349,181.209 10.568 C 179.871 9.404,179.399 9.368,179.007 10.399 C 178.786 10.980,178.781 12.448,179.000 12.583 C 179.092 12.640,179.167 12.865,179.167 13.083 C 179.167 13.302,179.092 13.527,179.000 13.583 C 178.573 13.847,178.930 15.172,179.690 16.147 C 179.861 16.366,180.000 16.730,180.000 16.955 C 180.000 17.548,180.482 18.276,181.208 18.779 L 181.840 19.217 181.212 19.603 C 180.816 19.847,180.317 19.992,179.864 19.995 C 179.049 20.001,178.500 20.235,178.500 20.577 C 178.500 20.889,180.179 21.833,180.734 21.833 C 180.978 21.833,181.447 21.946,181.776 22.083 C 182.112 22.224,182.879 22.333,183.526 22.333 C 184.172 22.333,184.940 22.224,185.276 22.083 C 185.605 21.946,186.064 21.833,186.296 21.833 C 188.278 21.833,192.500 17.734,192.500 15.809 C 192.500 15.676,192.579 15.488,192.675 15.391 C 192.772 15.295,192.911 14.621,192.984 13.894 C 193.105 12.692,193.172 12.513,193.725 11.911 C 194.383 11.195,194.453 10.973,194.112 10.690 C 193.982 10.582,193.920 10.301,193.963 10.011 C 194.048 9.428,193.577 9.223,192.537 9.392 C 191.964 9.485,190.790 9.260,190.417 8.986 C 190.177 8.810,189.128 8.667,188.833 8.770 M191.208 9.709 C 191.862 9.983,192.115 10.011,192.666 9.871 C 193.292 9.713,193.333 9.725,193.333 10.064 C 193.333 10.263,193.440 10.578,193.571 10.765 C 193.787 11.073,193.756 11.170,193.238 11.826 C 192.825 12.347,192.667 12.715,192.667 13.152 C 192.667 15.552,190.780 19.000,188.750 20.308 C 187.276 21.259,183.603 22.289,183.006 21.920 C 182.938 21.878,182.345 21.761,181.688 21.659 C 180.464 21.469,178.863 20.737,179.116 20.484 C 179.194 20.406,179.761 20.271,180.376 20.184 C 182.080 19.943,182.954 19.228,182.020 18.841 C 181.280 18.535,180.666 17.793,180.552 17.068 C 180.496 16.710,180.218 16.120,179.934 15.757 C 179.413 15.092,179.403 15.039,179.491 13.250 C 179.500 13.067,179.460 12.458,179.402 11.898 C 179.211 10.051,179.747 9.764,181.091 10.993 C 182.994 12.735,186.167 13.400,186.167 12.057 C 186.167 9.852,188.718 8.663,191.208 9.709 M210.250 9.731 C 208.519 10.488,208.335 11.051,208.334 15.614 C 208.333 21.313,208.520 21.500,214.250 21.500 C 218.252 21.500,218.650 21.412,219.570 20.319 L 220.016 19.789 219.966 15.515 C 219.910 10.671,219.908 10.664,218.449 9.875 C 217.605 9.419,211.221 9.307,210.250 9.731 M217.426 10.075 C 217.745 10.313,217.744 10.321,217.388 10.575 C 217.189 10.717,216.977 11.059,216.917 11.334 C 216.793 11.898,216.316 11.999,215.760 11.578 C 215.550 11.419,215.043 11.333,214.317 11.333 C 209.838 11.333,208.397 16.971,212.288 19.267 C 215.502 21.163,219.541 17.655,218.255 14.083 C 217.941 13.212,217.943 13.000,218.267 13.000 C 218.413 13.000,218.784 12.750,219.090 12.444 L 219.646 11.887 219.754 12.902 C 220.012 15.311,219.782 19.619,219.375 19.997 C 219.169 20.189,219.000 20.407,219.000 20.480 C 219.000 20.840,217.469 21.020,214.358 21.026 C 208.789 21.036,208.937 21.180,208.867 15.718 C 208.806 11.054,208.886 10.759,210.372 10.188 C 211.514 9.749,216.875 9.663,217.426 10.075 M218.561 10.854 C 219.348 11.212,219.042 12.500,218.169 12.500 C 217.058 12.500,217.017 11.045,218.117 10.678 C 218.136 10.672,218.336 10.751,218.561 10.854 M215.626 11.973 C 217.285 12.647,218.066 13.908,217.973 15.759 C 217.724 20.687,210.500 20.450,210.500 15.514 C 210.500 12.806,213.157 10.971,215.626 11.973 M213.657 13.321 C 211.891 13.871,211.339 15.776,212.568 17.079 C 214.481 19.107,217.736 16.578,216.167 14.283 C 215.604 13.460,214.531 13.049,213.657 13.321 M215.297 13.927 C 217.126 15.208,215.803 17.946,213.653 17.329 C 211.641 16.752,212.131 13.667,214.235 13.667 C 214.615 13.667,215.093 13.784,215.297 13.927 " stroke="none" fill="#a8ced4" fill-rule="evenodd"></path><path id="path3" d="M209.141 8.586 C 207.190 9.602,206.833 10.662,206.833 15.439 C 206.833 20.427,207.097 21.233,209.127 22.445 L 209.917 22.917 214.250 22.917 C 219.124 22.917,219.351 22.867,220.516 21.539 C 221.466 20.458,221.500 20.247,221.500 15.500 C 221.500 10.182,221.312 9.586,219.317 8.575 C 218.075 7.945,210.355 7.954,209.141 8.586 M218.964 8.733 C 219.699 9.106,220.238 9.550,220.833 10.272 C 221.166 10.675,221.210 20.271,220.881 20.671 C 219.871 21.897,219.594 22.167,219.348 22.167 C 219.192 22.167,218.918 22.277,218.740 22.411 C 218.117 22.883,210.453 22.768,209.477 22.273 C 207.379 21.209,207.250 20.815,207.250 15.500 C 207.250 10.307,207.525 9.458,209.406 8.837 C 209.730 8.730,210.038 8.573,210.091 8.488 C 210.335 8.093,218.128 8.308,218.964 8.733 M188.543 9.352 C 187.327 9.576,186.167 10.897,186.167 12.057 C 186.167 13.400,182.994 12.735,181.091 10.993 C 179.747 9.764,179.211 10.051,179.402 11.898 C 179.460 12.458,179.500 13.067,179.491 13.250 C 179.403 15.039,179.413 15.092,179.934 15.757 C 180.218 16.120,180.496 16.710,180.552 17.068 C 180.666 17.793,181.280 18.535,182.020 18.841 C 182.954 19.228,182.080 19.943,180.376 20.184 C 179.761 20.271,179.194 20.406,179.116 20.484 C 178.863 20.737,180.464 21.469,181.688 21.659 C 182.345 21.761,182.938 21.878,183.006 21.920 C 183.603 22.289,187.276 21.259,188.750 20.308 C 190.780 19.000,192.667 15.552,192.667 13.152 C 192.667 12.715,192.825 12.347,193.238 11.826 C 193.756 11.170,193.787 11.073,193.571 10.765 C 193.440 10.578,193.333 10.263,193.333 10.064 C 193.333 9.725,193.292 9.713,192.666 9.871 C 192.115 10.011,191.862 9.983,191.208 9.709 C 190.208 9.289,189.440 9.186,188.543 9.352 M209.464 9.833 C 208.144 10.662,208.092 10.856,208.028 15.224 C 207.962 19.729,208.146 20.445,209.601 21.344 C 210.254 21.748,218.287 21.847,218.696 21.456 C 218.818 21.340,219.129 21.110,219.389 20.943 C 220.249 20.392,220.333 19.904,220.333 15.464 C 220.332 10.881,220.314 10.804,218.981 9.838 L 218.283 9.333 214.267 9.337 L 210.250 9.340 209.464 9.833 M191.164 10.026 C 191.484 10.195,191.971 10.336,192.248 10.339 C 193.199 10.348,193.464 11.029,192.844 11.871 C 192.540 12.284,192.332 12.772,192.331 13.075 C 192.315 16.266,189.932 19.756,186.917 21.003 C 185.613 21.542,181.109 21.635,180.556 21.134 C 180.384 20.978,180.062 20.784,179.842 20.702 C 179.508 20.579,179.619 20.535,180.491 20.444 C 182.393 20.245,183.349 19.400,182.387 18.768 C 181.076 17.907,180.938 17.743,180.927 17.021 C 180.919 16.511,180.822 16.274,180.542 16.077 C 180.335 15.933,180.167 15.731,180.167 15.629 C 180.167 15.527,180.045 15.308,179.896 15.144 C 179.572 14.785,179.546 14.120,179.836 13.579 C 180.011 13.251,180.001 13.088,179.773 12.609 C 178.929 10.830,179.619 10.312,181.250 11.501 C 183.664 13.261,186.144 13.641,186.416 12.293 C 186.912 9.826,188.951 8.853,191.164 10.026 M218.449 9.875 C 219.908 10.664,219.910 10.671,219.966 15.515 L 220.016 19.789 219.570 20.319 C 218.650 21.412,218.252 21.500,214.250 21.500 C 208.520 21.500,208.333 21.313,208.334 15.614 C 208.335 11.051,208.519 10.488,210.250 9.731 C 211.221 9.307,217.605 9.419,218.449 9.875 M217.724 10.863 C 216.971 11.227,217.317 12.500,218.169 12.500 C 218.599 12.500,219.169 11.794,219.063 11.391 C 218.993 11.121,218.317 10.611,218.117 10.678 C 218.099 10.684,217.922 10.767,217.724 10.863 M218.506 11.344 C 218.833 11.956,218.318 12.352,217.742 11.932 C 217.427 11.701,217.427 11.690,217.736 11.348 C 218.131 10.912,218.274 10.911,218.506 11.344 M212.878 11.981 C 211.357 12.586,210.500 13.859,210.500 15.514 C 210.500 20.450,217.724 20.687,217.973 15.759 C 218.119 12.865,215.515 10.934,212.878 11.981 M215.514 12.266 C 215.796 12.321,216.273 12.605,216.574 12.897 C 219.319 15.562,217.029 19.694,213.274 18.853 C 210.027 18.127,209.911 12.781,213.130 12.243 C 213.471 12.186,213.825 12.113,213.917 12.081 C 214.082 12.023,214.525 12.075,215.514 12.266 M213.152 13.180 C 211.698 13.969,211.174 15.677,212.012 16.900 C 212.463 17.558,213.977 18.389,214.438 18.232 C 216.267 17.611,216.909 16.826,216.802 15.341 C 216.662 13.412,214.779 12.297,213.152 13.180 M215.333 13.509 C 216.532 13.982,216.944 15.777,216.105 16.874 C 214.426 19.072,210.973 17.048,212.173 14.570 C 212.775 13.327,213.907 12.947,215.333 13.509 " stroke="none" fill="#d2e5e8" fill-rule="evenodd"></path><path id="path4" d="M210.091 8.488 C 210.038 8.573,209.730 8.730,209.406 8.837 C 208.730 9.060,208.229 9.517,207.654 10.437 C 207.023 11.447,207.023 19.542,207.654 20.583 C 208.511 21.996,210.667 23.248,210.667 22.333 C 210.667 22.056,210.556 22.000,210.000 22.000 C 209.633 22.000,209.333 21.937,209.333 21.860 C 209.333 21.783,209.690 21.778,210.125 21.850 C 211.137 22.016,217.345 22.020,218.333 21.855 C 219.072 21.731,220.013 21.054,220.216 20.500 C 220.266 20.362,220.313 20.494,220.320 20.792 C 220.331 21.227,220.268 21.333,220.000 21.333 C 219.778 21.333,219.667 21.444,219.667 21.667 C 219.667 21.959,219.556 22.000,218.769 22.000 C 218.012 22.000,217.859 22.052,217.785 22.333 C 217.678 22.743,218.241 22.789,218.740 22.411 C 218.918 22.277,219.192 22.167,219.348 22.167 C 219.594 22.167,219.871 21.897,220.881 20.671 C 221.210 20.271,221.166 10.675,220.833 10.272 C 219.332 8.450,218.930 8.333,214.182 8.333 C 211.908 8.333,210.145 8.400,210.091 8.488 M218.667 9.000 C 218.896 9.074,216.914 9.136,214.250 9.138 C 211.412 9.141,209.554 9.084,209.750 9.000 C 210.170 8.820,218.104 8.820,218.667 9.000 M218.981 9.838 C 220.314 10.804,220.332 10.881,220.333 15.464 C 220.333 19.904,220.249 20.392,219.389 20.943 C 219.129 21.110,218.818 21.340,218.696 21.456 C 218.287 21.847,210.254 21.748,209.601 21.344 C 208.146 20.445,207.962 19.729,208.028 15.224 C 208.092 10.856,208.144 10.662,209.464 9.833 L 210.250 9.340 214.267 9.337 L 218.283 9.333 218.981 9.838 M188.508 9.628 C 187.572 9.734,186.710 10.832,186.416 12.293 C 186.144 13.641,183.664 13.261,181.250 11.501 C 179.619 10.312,178.929 10.830,179.773 12.609 C 180.001 13.088,180.011 13.251,179.836 13.579 C 179.546 14.120,179.572 14.785,179.896 15.144 C 180.045 15.308,180.167 15.527,180.167 15.629 C 180.167 15.731,180.335 15.933,180.542 16.077 C 180.822 16.274,180.919 16.511,180.927 17.021 C 180.938 17.743,181.076 17.907,182.387 18.768 C 183.346 19.397,182.393 20.245,180.506 20.442 C 179.491 20.548,179.480 20.555,179.965 20.759 C 180.237 20.873,180.511 21.049,180.573 21.150 C 180.635 21.251,180.888 21.327,181.135 21.320 C 181.382 21.313,181.490 21.269,181.375 21.223 C 180.926 21.042,181.145 20.500,181.666 20.500 C 182.471 20.500,183.606 19.393,183.229 18.976 C 183.075 18.806,182.863 18.667,182.758 18.667 C 182.162 18.667,180.925 17.002,181.333 16.750 C 181.636 16.563,181.508 16.327,180.917 15.978 C 180.596 15.789,180.333 15.505,180.333 15.349 C 180.333 15.192,180.232 14.925,180.107 14.755 C 179.917 14.495,179.917 14.377,180.106 14.014 C 180.428 13.398,180.386 12.779,179.988 12.273 C 179.554 11.720,179.609 11.059,180.083 11.141 C 180.267 11.173,180.477 11.304,180.550 11.433 C 180.623 11.561,180.794 11.667,180.930 11.667 C 181.066 11.667,181.218 11.772,181.267 11.901 C 181.317 12.031,181.596 12.231,181.887 12.346 C 182.178 12.461,182.515 12.632,182.636 12.724 C 182.939 12.956,184.440 13.443,185.269 13.577 C 186.215 13.730,187.000 12.834,187.000 11.601 C 187.000 10.309,189.076 9.486,190.583 10.181 C 190.767 10.265,191.329 10.473,191.833 10.643 C 192.842 10.983,192.976 11.358,192.321 12.013 C 192.080 12.253,191.999 12.573,191.995 13.292 C 191.992 13.856,191.892 14.379,191.752 14.564 C 191.621 14.737,191.463 15.224,191.400 15.648 C 191.338 16.071,191.147 16.596,190.977 16.814 C 190.806 17.033,190.667 17.302,190.667 17.413 C 190.667 17.524,190.517 17.751,190.333 17.917 C 190.150 18.083,190.000 18.278,190.000 18.352 C 190.000 18.536,189.186 19.333,188.998 19.333 C 188.914 19.333,188.765 19.483,188.667 19.667 C 188.569 19.850,188.389 20.000,188.267 20.000 C 188.145 20.000,187.854 20.150,187.621 20.333 C 187.388 20.517,187.057 20.667,186.886 20.667 C 186.714 20.667,186.389 20.798,186.162 20.958 C 185.850 21.179,185.264 21.275,183.750 21.353 L 181.750 21.456 183.917 21.414 C 188.655 21.323,192.308 17.702,192.331 13.075 C 192.332 12.772,192.540 12.284,192.844 11.871 C 193.464 11.029,193.199 10.348,192.248 10.339 C 191.971 10.336,191.484 10.195,191.164 10.026 C 190.534 9.691,189.420 9.525,188.508 9.628 M220.311 10.318 C 220.289 10.737,220.286 10.738,220.213 10.356 C 220.172 10.139,219.995 9.924,219.819 9.878 C 219.644 9.832,219.500 9.730,219.500 9.651 C 219.500 9.572,219.688 9.593,219.917 9.697 C 220.217 9.834,220.327 10.007,220.311 10.318 M217.736 11.348 C 217.427 11.690,217.427 11.701,217.742 11.932 C 218.318 12.352,218.833 11.956,218.506 11.344 C 218.274 10.911,218.131 10.912,217.736 11.348 M221.000 15.500 C 221.000 17.975,220.944 20.000,220.875 20.000 C 220.806 20.000,220.750 17.975,220.750 15.500 C 220.750 13.025,220.806 11.000,220.875 11.000 C 220.944 11.000,221.000 13.025,221.000 15.500 M213.917 12.081 C 213.825 12.113,213.471 12.186,213.130 12.243 C 209.911 12.781,210.027 18.127,213.274 18.853 C 217.029 19.694,219.319 15.562,216.574 12.897 C 216.273 12.605,215.796 12.321,215.514 12.266 C 214.525 12.075,214.082 12.023,213.917 12.081 M214.542 12.451 C 214.335 12.491,213.998 12.491,213.792 12.451 C 213.585 12.411,213.754 12.379,214.167 12.379 C 214.579 12.379,214.748 12.411,214.542 12.451 M212.833 12.981 C 212.833 13.140,212.145 13.367,212.025 13.247 C 211.969 13.191,212.479 12.923,212.792 12.844 C 212.815 12.838,212.833 12.900,212.833 12.981 M215.462 13.228 C 217.786 14.706,217.261 17.274,214.438 18.232 C 213.977 18.389,212.463 17.558,212.012 16.900 C 210.561 14.783,213.308 11.860,215.462 13.228 M211.525 14.357 L 211.363 14.917 211.348 14.403 C 211.340 14.120,211.383 13.839,211.444 13.778 C 211.654 13.568,211.686 13.797,211.525 14.357 M217.667 15.500 C 217.667 15.775,217.592 16.000,217.500 16.000 C 217.408 16.000,217.333 15.775,217.333 15.500 C 217.333 15.225,217.408 15.000,217.500 15.000 C 217.592 15.000,217.667 15.225,217.667 15.500 M211.742 17.154 C 211.803 17.253,211.737 17.333,211.593 17.333 C 211.401 17.333,211.337 17.169,211.348 16.708 C 211.361 16.127,211.371 16.115,211.496 16.529 C 211.570 16.774,211.681 17.055,211.742 17.154 M213.530 18.638 C 213.068 18.704,212.667 18.571,212.667 18.354 C 212.667 18.263,212.929 18.279,213.292 18.391 C 213.815 18.552,213.854 18.592,213.530 18.638 M215.583 18.500 C 215.527 18.592,215.241 18.659,214.948 18.650 C 214.441 18.634,214.435 18.627,214.833 18.500 C 215.432 18.308,215.702 18.308,215.583 18.500 M208.208 20.254 C 208.252 20.485,208.224 20.715,208.144 20.764 C 208.065 20.813,208.000 20.624,208.000 20.343 C 208.000 19.724,208.099 19.682,208.208 20.254 " stroke="none" fill="#ecf4f5" fill-rule="evenodd"></path></g></svg>